<mxfile host="65bd71144e">
    <diagram id="ycpoQXMAaT8g_MElo2b9" name="1">
        <mxGraphModel dx="970" dy="1315" grid="1" gridSize="10" guides="1" tooltips="1" connect="1" arrows="1" fold="1" page="1" pageScale="1" pageWidth="1169" pageHeight="827" math="0" shadow="0">
            <root>
                <mxCell id="0"/>
                <mxCell id="1" parent="0"/>
                <mxCell id="KwGx5xKKv3qboaH9fJdi-1" value="2" style="edgeStyle=none;html=1;exitX=0.5;exitY=1;exitDx=0;exitDy=0;entryX=0.5;entryY=0;entryDx=0;entryDy=0;startArrow=none;startFill=0;" edge="1" parent="1" source="KwGx5xKKv3qboaH9fJdi-2" target="KwGx5xKKv3qboaH9fJdi-13">
                    <mxGeometry relative="1" as="geometry"/>
                </mxCell>
                <mxCell id="KwGx5xKKv3qboaH9fJdi-2" value="A" style="ellipse;whiteSpace=wrap;html=1;strokeWidth=4;" vertex="1" parent="1">
                    <mxGeometry x="250" y="260" width="40" height="40" as="geometry"/>
                </mxCell>
                <mxCell id="KwGx5xKKv3qboaH9fJdi-3" value="0" style="edgeStyle=none;html=1;exitX=0;exitY=0;exitDx=0;exitDy=0;entryX=1;entryY=1;entryDx=0;entryDy=0;startArrow=none;startFill=0;" edge="1" parent="1" source="KwGx5xKKv3qboaH9fJdi-6" target="KwGx5xKKv3qboaH9fJdi-33">
                    <mxGeometry relative="1" as="geometry"/>
                </mxCell>
                <mxCell id="KwGx5xKKv3qboaH9fJdi-4" value="2" style="edgeStyle=none;html=1;exitX=0;exitY=1;exitDx=0;exitDy=0;entryX=1;entryY=1;entryDx=0;entryDy=0;startArrow=none;startFill=0;" edge="1" parent="1" source="KwGx5xKKv3qboaH9fJdi-6" target="KwGx5xKKv3qboaH9fJdi-13">
                    <mxGeometry relative="1" as="geometry">
                        <Array as="points">
                            <mxPoint x="430" y="550"/>
                        </Array>
                    </mxGeometry>
                </mxCell>
                <mxCell id="KwGx5xKKv3qboaH9fJdi-5" value="1" style="edgeStyle=none;html=1;exitX=1;exitY=0;exitDx=0;exitDy=0;entryX=1;entryY=1;entryDx=0;entryDy=0;startArrow=none;startFill=0;" edge="1" parent="1" source="KwGx5xKKv3qboaH9fJdi-6" target="KwGx5xKKv3qboaH9fJdi-9">
                    <mxGeometry relative="1" as="geometry">
                        <Array as="points">
                            <mxPoint x="620" y="400"/>
                        </Array>
                    </mxGeometry>
                </mxCell>
                <mxCell id="KwGx5xKKv3qboaH9fJdi-6" value="D" style="ellipse;whiteSpace=wrap;html=1;strokeWidth=4;" vertex="1" parent="1">
                    <mxGeometry x="570" y="500" width="40" height="40" as="geometry"/>
                </mxCell>
                <mxCell id="KwGx5xKKv3qboaH9fJdi-7" value="0" style="edgeStyle=none;html=1;exitX=0;exitY=0.5;exitDx=0;exitDy=0;entryX=1;entryY=0.5;entryDx=0;entryDy=0;startArrow=none;startFill=0;" edge="1" parent="1" source="KwGx5xKKv3qboaH9fJdi-9" target="KwGx5xKKv3qboaH9fJdi-2">
                    <mxGeometry relative="1" as="geometry"/>
                </mxCell>
                <mxCell id="KwGx5xKKv3qboaH9fJdi-8" value="3" style="edgeStyle=none;html=1;exitX=0.5;exitY=1;exitDx=0;exitDy=0;entryX=0.5;entryY=0;entryDx=0;entryDy=0;startArrow=none;startFill=0;" edge="1" parent="1" source="KwGx5xKKv3qboaH9fJdi-9" target="KwGx5xKKv3qboaH9fJdi-6">
                    <mxGeometry relative="1" as="geometry"/>
                </mxCell>
                <mxCell id="KwGx5xKKv3qboaH9fJdi-9" value="B" style="ellipse;whiteSpace=wrap;html=1;strokeWidth=4;" vertex="1" parent="1">
                    <mxGeometry x="570" y="260" width="40" height="40" as="geometry"/>
                </mxCell>
                <mxCell id="KwGx5xKKv3qboaH9fJdi-10" value="1" style="edgeStyle=none;html=1;exitX=1;exitY=0;exitDx=0;exitDy=0;startArrow=none;startFill=0;entryX=0;entryY=1;entryDx=0;entryDy=0;" edge="1" parent="1" source="KwGx5xKKv3qboaH9fJdi-13" target="KwGx5xKKv3qboaH9fJdi-27">
                    <mxGeometry relative="1" as="geometry">
                        <mxPoint x="340" y="460" as="targetPoint"/>
                    </mxGeometry>
                </mxCell>
                <mxCell id="KwGx5xKKv3qboaH9fJdi-11" value="0" style="edgeStyle=none;html=1;exitX=0;exitY=0;exitDx=0;exitDy=0;entryX=0;entryY=1;entryDx=0;entryDy=0;startArrow=none;startFill=0;" edge="1" parent="1" source="KwGx5xKKv3qboaH9fJdi-13" target="KwGx5xKKv3qboaH9fJdi-2">
                    <mxGeometry relative="1" as="geometry">
                        <Array as="points">
                            <mxPoint x="240" y="400"/>
                        </Array>
                    </mxGeometry>
                </mxCell>
                <mxCell id="KwGx5xKKv3qboaH9fJdi-12" value="3" style="edgeStyle=none;html=1;exitX=1;exitY=0.5;exitDx=0;exitDy=0;entryX=0;entryY=0.5;entryDx=0;entryDy=0;startArrow=none;startFill=0;" edge="1" parent="1" source="KwGx5xKKv3qboaH9fJdi-13" target="KwGx5xKKv3qboaH9fJdi-6">
                    <mxGeometry relative="1" as="geometry"/>
                </mxCell>
                <mxCell id="KwGx5xKKv3qboaH9fJdi-13" value="C" style="ellipse;whiteSpace=wrap;html=1;strokeWidth=4;" vertex="1" parent="1">
                    <mxGeometry x="250" y="500" width="40" height="40" as="geometry"/>
                </mxCell>
                <mxCell id="KwGx5xKKv3qboaH9fJdi-14" value="0, 1, 3" style="edgeStyle=none;html=1;exitX=0;exitY=0.5;exitDx=0;exitDy=0;entryX=0.5;entryY=0;entryDx=0;entryDy=0;" edge="1" parent="1" source="KwGx5xKKv3qboaH9fJdi-2" target="KwGx5xKKv3qboaH9fJdi-2">
                    <mxGeometry relative="1" as="geometry">
                        <Array as="points">
                            <mxPoint x="220" y="280"/>
                            <mxPoint x="220" y="240"/>
                            <mxPoint x="270" y="240"/>
                        </Array>
                    </mxGeometry>
                </mxCell>
                <mxCell id="KwGx5xKKv3qboaH9fJdi-15" value="1, 2" style="edgeStyle=none;html=1;exitX=1;exitY=0.5;exitDx=0;exitDy=0;entryX=0.5;entryY=0;entryDx=0;entryDy=0;" edge="1" parent="1" source="KwGx5xKKv3qboaH9fJdi-9" target="KwGx5xKKv3qboaH9fJdi-9">
                    <mxGeometry relative="1" as="geometry">
                        <Array as="points">
                            <mxPoint x="630" y="280"/>
                            <mxPoint x="630" y="240"/>
                            <mxPoint x="590" y="240"/>
                        </Array>
                    </mxGeometry>
                </mxCell>
                <mxCell id="KwGx5xKKv3qboaH9fJdi-16" value="2" style="edgeStyle=none;html=1;exitX=0;exitY=0.5;exitDx=0;exitDy=0;entryX=0.5;entryY=1;entryDx=0;entryDy=0;" edge="1" parent="1" source="KwGx5xKKv3qboaH9fJdi-13" target="KwGx5xKKv3qboaH9fJdi-13">
                    <mxGeometry relative="1" as="geometry">
                        <Array as="points">
                            <mxPoint x="220" y="520"/>
                            <mxPoint x="220" y="560"/>
                            <mxPoint x="230" y="560"/>
                            <mxPoint x="270" y="560"/>
                        </Array>
                    </mxGeometry>
                </mxCell>
                <mxCell id="KwGx5xKKv3qboaH9fJdi-17" value="3" style="edgeStyle=none;html=1;exitX=1;exitY=0.5;exitDx=0;exitDy=0;" edge="1" parent="1" source="KwGx5xKKv3qboaH9fJdi-6" target="KwGx5xKKv3qboaH9fJdi-6">
                    <mxGeometry relative="1" as="geometry">
                        <Array as="points">
                            <mxPoint x="640" y="520"/>
                            <mxPoint x="630" y="520"/>
                            <mxPoint x="640" y="520"/>
                            <mxPoint x="640" y="560"/>
                            <mxPoint x="590" y="560"/>
                        </Array>
                    </mxGeometry>
                </mxCell>
                <mxCell id="KwGx5xKKv3qboaH9fJdi-18" value="1" style="edgeStyle=none;html=1;exitX=1;exitY=0;exitDx=0;exitDy=0;entryX=0;entryY=1;entryDx=0;entryDy=0;startArrow=none;startFill=0;" edge="1" parent="1" source="KwGx5xKKv3qboaH9fJdi-20" target="KwGx5xKKv3qboaH9fJdi-30">
                    <mxGeometry relative="1" as="geometry"/>
                </mxCell>
                <mxCell id="KwGx5xKKv3qboaH9fJdi-19" value="0" style="edgeStyle=none;html=1;exitX=0;exitY=0;exitDx=0;exitDy=0;entryX=1;entryY=1;entryDx=0;entryDy=0;startArrow=none;startFill=0;" edge="1" parent="1" source="KwGx5xKKv3qboaH9fJdi-20" target="KwGx5xKKv3qboaH9fJdi-2">
                    <mxGeometry relative="1" as="geometry"/>
                </mxCell>
                <mxCell id="KwGx5xKKv3qboaH9fJdi-20" value="G" style="ellipse;whiteSpace=wrap;html=1;" vertex="1" parent="1">
                    <mxGeometry x="410" y="380" width="40" height="40" as="geometry"/>
                </mxCell>
                <mxCell id="KwGx5xKKv3qboaH9fJdi-21" value="000" style="text;html=1;align=center;verticalAlign=middle;resizable=0;points=[];autosize=1;strokeColor=none;fillColor=none;" vertex="1" parent="1">
                    <mxGeometry x="280" y="230" width="40" height="30" as="geometry"/>
                </mxCell>
                <mxCell id="KwGx5xKKv3qboaH9fJdi-22" value="100" style="text;html=1;align=center;verticalAlign=middle;resizable=0;points=[];autosize=1;strokeColor=none;fillColor=none;" vertex="1" parent="1">
                    <mxGeometry x="410" y="350" width="40" height="30" as="geometry"/>
                </mxCell>
                <mxCell id="KwGx5xKKv3qboaH9fJdi-23" value="011" style="text;html=1;align=center;verticalAlign=middle;resizable=0;points=[];autosize=1;strokeColor=none;fillColor=none;" vertex="1" parent="1">
                    <mxGeometry x="540" y="540" width="40" height="30" as="geometry"/>
                </mxCell>
                <mxCell id="KwGx5xKKv3qboaH9fJdi-24" value="001" style="text;html=1;align=center;verticalAlign=middle;resizable=0;points=[];autosize=1;strokeColor=none;fillColor=none;" vertex="1" parent="1">
                    <mxGeometry x="540" y="230" width="40" height="30" as="geometry"/>
                </mxCell>
                <mxCell id="KwGx5xKKv3qboaH9fJdi-25" value="010" style="text;html=1;align=center;verticalAlign=middle;resizable=0;points=[];autosize=1;strokeColor=none;fillColor=none;" vertex="1" parent="1">
                    <mxGeometry x="280" y="540" width="40" height="30" as="geometry"/>
                </mxCell>
                <mxCell id="KwGx5xKKv3qboaH9fJdi-26" value="1, 0" style="edgeStyle=none;html=1;exitX=1;exitY=0;exitDx=0;exitDy=0;entryX=0;entryY=1;entryDx=0;entryDy=0;startArrow=none;startFill=0;" edge="1" parent="1" source="KwGx5xKKv3qboaH9fJdi-27" target="KwGx5xKKv3qboaH9fJdi-20">
                    <mxGeometry relative="1" as="geometry"/>
                </mxCell>
                <mxCell id="KwGx5xKKv3qboaH9fJdi-27" value="Gc" style="ellipse;whiteSpace=wrap;html=1;" vertex="1" parent="1">
                    <mxGeometry x="330" y="440" width="40" height="40" as="geometry"/>
                </mxCell>
                <mxCell id="KwGx5xKKv3qboaH9fJdi-28" value="110" style="text;html=1;align=center;verticalAlign=middle;resizable=0;points=[];autosize=1;strokeColor=none;fillColor=none;" vertex="1" parent="1">
                    <mxGeometry x="330" y="410" width="40" height="30" as="geometry"/>
                </mxCell>
                <mxCell id="KwGx5xKKv3qboaH9fJdi-29" value="1" style="edgeStyle=none;html=1;exitX=1;exitY=0;exitDx=0;exitDy=0;entryX=0;entryY=1;entryDx=0;entryDy=0;startArrow=none;startFill=0;" edge="1" parent="1" source="KwGx5xKKv3qboaH9fJdi-30" target="KwGx5xKKv3qboaH9fJdi-9">
                    <mxGeometry relative="1" as="geometry"/>
                </mxCell>
                <mxCell id="KwGx5xKKv3qboaH9fJdi-30" value="Gb" style="ellipse;whiteSpace=wrap;html=1;" vertex="1" parent="1">
                    <mxGeometry x="490" y="320" width="40" height="40" as="geometry"/>
                </mxCell>
                <mxCell id="KwGx5xKKv3qboaH9fJdi-31" value="101" style="text;html=1;align=center;verticalAlign=middle;resizable=0;points=[];autosize=1;strokeColor=none;fillColor=none;" vertex="1" parent="1">
                    <mxGeometry x="490" y="294" width="40" height="30" as="geometry"/>
                </mxCell>
                <mxCell id="KwGx5xKKv3qboaH9fJdi-32" value="0" style="edgeStyle=none;html=1;exitX=0;exitY=0.5;exitDx=0;exitDy=0;entryX=1;entryY=0.5;entryDx=0;entryDy=0;startArrow=none;startFill=0;" edge="1" parent="1" source="KwGx5xKKv3qboaH9fJdi-33" target="KwGx5xKKv3qboaH9fJdi-27">
                    <mxGeometry relative="1" as="geometry">
                        <mxPoint x="450" y="460" as="targetPoint"/>
                    </mxGeometry>
                </mxCell>
                <mxCell id="KwGx5xKKv3qboaH9fJdi-33" value="Gd" style="ellipse;whiteSpace=wrap;html=1;" vertex="1" parent="1">
                    <mxGeometry x="490" y="440" width="40" height="40" as="geometry"/>
                </mxCell>
                <mxCell id="KwGx5xKKv3qboaH9fJdi-34" value="111" style="text;html=1;align=center;verticalAlign=middle;resizable=0;points=[];autosize=1;strokeColor=none;fillColor=none;" vertex="1" parent="1">
                    <mxGeometry x="490" y="410" width="40" height="30" as="geometry"/>
                </mxCell>
            </root>
        </mxGraphModel>
    </diagram>
    <diagram id="RGYSdo--q61aM9Ta2jTY" name="2">
        <mxGraphModel dx="1164" dy="1578" grid="1" gridSize="10" guides="1" tooltips="1" connect="1" arrows="1" fold="1" page="1" pageScale="1" pageWidth="1169" pageHeight="827" math="0" shadow="0">
            <root>
                <mxCell id="0"/>
                <mxCell id="1" parent="0"/>
                <mxCell id="v-3RUPXfOJBgxAPebXQE-1" style="edgeStyle=none;html=1;exitX=0.5;exitY=1;exitDx=0;exitDy=0;entryX=0.5;entryY=0;entryDx=0;entryDy=0;startArrow=classic;startFill=1;" edge="1" parent="1" source="v-3RUPXfOJBgxAPebXQE-2" target="v-3RUPXfOJBgxAPebXQE-10">
                    <mxGeometry relative="1" as="geometry"/>
                </mxCell>
                <mxCell id="v-3RUPXfOJBgxAPebXQE-2" value="A" style="ellipse;whiteSpace=wrap;html=1;strokeWidth=4;" vertex="1" parent="1">
                    <mxGeometry x="760" y="270" width="40" height="40" as="geometry"/>
                </mxCell>
                <mxCell id="v-3RUPXfOJBgxAPebXQE-3" style="edgeStyle=none;html=1;exitX=0;exitY=0;exitDx=0;exitDy=0;entryX=1;entryY=1;entryDx=0;entryDy=0;startArrow=none;startFill=0;" edge="1" parent="1" source="v-3RUPXfOJBgxAPebXQE-4" target="v-3RUPXfOJBgxAPebXQE-2">
                    <mxGeometry relative="1" as="geometry"/>
                </mxCell>
                <mxCell id="v-3RUPXfOJBgxAPebXQE-4" value="D" style="ellipse;whiteSpace=wrap;html=1;strokeWidth=4;" vertex="1" parent="1">
                    <mxGeometry x="1000" y="470" width="40" height="40" as="geometry"/>
                </mxCell>
                <mxCell id="v-3RUPXfOJBgxAPebXQE-5" style="edgeStyle=none;html=1;exitX=0;exitY=0.5;exitDx=0;exitDy=0;entryX=1;entryY=0.5;entryDx=0;entryDy=0;startArrow=none;startFill=0;" edge="1" parent="1" source="v-3RUPXfOJBgxAPebXQE-7" target="v-3RUPXfOJBgxAPebXQE-2">
                    <mxGeometry relative="1" as="geometry"/>
                </mxCell>
                <mxCell id="v-3RUPXfOJBgxAPebXQE-6" style="edgeStyle=none;html=1;exitX=0.5;exitY=1;exitDx=0;exitDy=0;entryX=0.5;entryY=0;entryDx=0;entryDy=0;startArrow=classic;startFill=1;" edge="1" parent="1" source="v-3RUPXfOJBgxAPebXQE-7" target="v-3RUPXfOJBgxAPebXQE-4">
                    <mxGeometry relative="1" as="geometry"/>
                </mxCell>
                <mxCell id="v-3RUPXfOJBgxAPebXQE-7" value="B" style="ellipse;whiteSpace=wrap;html=1;strokeWidth=4;" vertex="1" parent="1">
                    <mxGeometry x="1000" y="270" width="40" height="40" as="geometry"/>
                </mxCell>
                <mxCell id="v-3RUPXfOJBgxAPebXQE-8" style="edgeStyle=none;html=1;exitX=1;exitY=0.5;exitDx=0;exitDy=0;entryX=0;entryY=0.5;entryDx=0;entryDy=0;startArrow=classic;startFill=1;" edge="1" parent="1" source="v-3RUPXfOJBgxAPebXQE-10" target="v-3RUPXfOJBgxAPebXQE-4">
                    <mxGeometry relative="1" as="geometry"/>
                </mxCell>
                <mxCell id="v-3RUPXfOJBgxAPebXQE-9" style="edgeStyle=none;html=1;exitX=1;exitY=0;exitDx=0;exitDy=0;entryX=0;entryY=1;entryDx=0;entryDy=0;startArrow=none;startFill=0;" edge="1" parent="1" source="v-3RUPXfOJBgxAPebXQE-10" target="v-3RUPXfOJBgxAPebXQE-7">
                    <mxGeometry relative="1" as="geometry"/>
                </mxCell>
                <mxCell id="v-3RUPXfOJBgxAPebXQE-10" value="C" style="ellipse;whiteSpace=wrap;html=1;strokeWidth=4;" vertex="1" parent="1">
                    <mxGeometry x="760" y="470" width="40" height="40" as="geometry"/>
                </mxCell>
                <mxCell id="v-3RUPXfOJBgxAPebXQE-11" style="edgeStyle=none;html=1;exitX=0;exitY=0.5;exitDx=0;exitDy=0;entryX=0.5;entryY=0;entryDx=0;entryDy=0;" edge="1" parent="1" source="v-3RUPXfOJBgxAPebXQE-2" target="v-3RUPXfOJBgxAPebXQE-2">
                    <mxGeometry relative="1" as="geometry">
                        <Array as="points">
                            <mxPoint x="730" y="290"/>
                            <mxPoint x="730" y="250"/>
                            <mxPoint x="780" y="250"/>
                        </Array>
                    </mxGeometry>
                </mxCell>
                <mxCell id="v-3RUPXfOJBgxAPebXQE-12" style="edgeStyle=none;html=1;exitX=1;exitY=0.5;exitDx=0;exitDy=0;entryX=0.5;entryY=0;entryDx=0;entryDy=0;" edge="1" parent="1" source="v-3RUPXfOJBgxAPebXQE-7" target="v-3RUPXfOJBgxAPebXQE-7">
                    <mxGeometry relative="1" as="geometry">
                        <Array as="points">
                            <mxPoint x="1060" y="290"/>
                            <mxPoint x="1060" y="250"/>
                            <mxPoint x="1020" y="250"/>
                        </Array>
                    </mxGeometry>
                </mxCell>
                <mxCell id="v-3RUPXfOJBgxAPebXQE-13" style="edgeStyle=none;html=1;exitX=0;exitY=0.5;exitDx=0;exitDy=0;entryX=0.5;entryY=1;entryDx=0;entryDy=0;" edge="1" parent="1" source="v-3RUPXfOJBgxAPebXQE-10" target="v-3RUPXfOJBgxAPebXQE-10">
                    <mxGeometry relative="1" as="geometry">
                        <Array as="points">
                            <mxPoint x="730" y="490"/>
                            <mxPoint x="730" y="530"/>
                            <mxPoint x="740" y="530"/>
                            <mxPoint x="780" y="530"/>
                        </Array>
                    </mxGeometry>
                </mxCell>
                <mxCell id="v-3RUPXfOJBgxAPebXQE-14" style="edgeStyle=none;html=1;exitX=1;exitY=0.5;exitDx=0;exitDy=0;entryX=0.5;entryY=1;entryDx=0;entryDy=0;" edge="1" parent="1" source="v-3RUPXfOJBgxAPebXQE-4" target="v-3RUPXfOJBgxAPebXQE-4">
                    <mxGeometry relative="1" as="geometry">
                        <Array as="points">
                            <mxPoint x="1070" y="490"/>
                            <mxPoint x="1060" y="490"/>
                            <mxPoint x="1070" y="490"/>
                            <mxPoint x="1070" y="530"/>
                            <mxPoint x="1020" y="530"/>
                        </Array>
                    </mxGeometry>
                </mxCell>
                <mxCell id="v-3RUPXfOJBgxAPebXQE-15" value="00" style="text;html=1;align=center;verticalAlign=middle;resizable=0;points=[];autosize=1;strokeColor=none;fillColor=none;" vertex="1" parent="1">
                    <mxGeometry x="780" y="245" width="40" height="30" as="geometry"/>
                </mxCell>
                <mxCell id="v-3RUPXfOJBgxAPebXQE-16" value="01" style="text;html=1;align=center;verticalAlign=middle;resizable=0;points=[];autosize=1;strokeColor=none;fillColor=none;" vertex="1" parent="1">
                    <mxGeometry x="970" y="245" width="40" height="30" as="geometry"/>
                </mxCell>
                <mxCell id="v-3RUPXfOJBgxAPebXQE-17" value="10" style="text;html=1;align=center;verticalAlign=middle;resizable=0;points=[];autosize=1;strokeColor=none;fillColor=none;" vertex="1" parent="1">
                    <mxGeometry x="790" y="510" width="40" height="30" as="geometry"/>
                </mxCell>
                <mxCell id="v-3RUPXfOJBgxAPebXQE-18" value="11" style="text;html=1;align=center;verticalAlign=middle;resizable=0;points=[];autosize=1;strokeColor=none;fillColor=none;" vertex="1" parent="1">
                    <mxGeometry x="970" y="510" width="40" height="30" as="geometry"/>
                </mxCell>
            </root>
        </mxGraphModel>
    </diagram>
</mxfile>